# xmcd CD database file
#
# Track frame offsets:
#	150
#	7263
#	39677
#	68000
#	92897
#	116355
#	131081
#	152681
#	172438
#	191228
#	209108
#	235372
#	255249
#	270172
#
# Disc length: 3926 seconds
#
# Revision: 0
# Processed by: cddbd v1.5.1PL0 Copyright (c) Steve Scherf et al.
# Submitted via: CDex 1.51
#
DISCID=ce0f540e
DTITLE=DuoCellier and Duperrex - Opus 2004
DYEAR=2004
DGENRE=Jazz
TTITLE0=Pinocchio mio
TTITLE1=152
TTITLE2=Amigo
TTITLE3=A Manha
TTITLE4=Leon De Argentina
TTITLE5=Springtime
TTITLE6=Valse Triste
TTITLE7=Il Fait Chaud
TTITLE8=Valse Des Feuilles Mortes
TTITLE9=Samba Du Pigeon
TTITLE10=Mamelon D'Acier
TTITLE11=Foaie Verde
TTITLE12=Bijou, Caillou, Ripou
TTITLE13=Coke en Stoke
EXTD=YEAR: 2004
EXTT0=
EXTT1=
EXTT2=
EXTT3=
EXTT4=
EXTT5=
EXTT6=
EXTT7=
EXTT8=
EXTT9=
EXTT10=
EXTT11=
EXTT12=
EXTT13=
PLAYORDER=
